<?xml version="1.0" standalone="no"?>
<!DOCTYPE svg PUBLIC "-//W3C//DTD SVG 20010904//EN"
 "http://www.w3.org/TR/2001/REC-SVG-20010904/DTD/svg10.dtd">
<svg version="1.0" xmlns="http://www.w3.org/2000/svg"
 width="700.000000pt" height="700.000000pt" viewBox="0 0 700.000000 700.000000"
 preserveAspectRatio="xMidYMid meet">
<metadata>
Created by potrace 1.14, written by Peter Selinger 2001-2017
</metadata>
<g transform="translate(0.000000,700.000000) scale(0.100000,-0.100000)"
fill="#000000" stroke="none">
<path d="M3278 6995 c-1 -1 -39 -5 -83 -9 -99 -8 -164 -15 -190 -21 -11 -2
-42 -7 -70 -10 -196 -25 -585 -135 -762 -216 -24 -10 -45 -19 -47 -19 -3 0
-63 -28 -133 -61 -912 -437 -1595 -1251 -1867 -2227 -27 -94 -71 -300 -81
-372 -3 -25 -8 -56 -11 -70 -5 -29 -10 -71 -21 -190 -15 -161 -8 -600 11 -710
3 -14 7 -45 10 -70 11 -95 22 -161 51 -290 71 -324 206 -668 377 -965 75 -129
90 -155 101 -169 4 -6 35 -51 69 -101 159 -234 376 -470 613 -670 94 -79 287
-223 350 -262 293 -179 503 -281 760 -371 64 -23 223 -71 252 -77 10 -2 56
-12 103 -24 85 -20 164 -36 230 -46 19 -3 46 -7 60 -10 40 -7 127 -16 230 -25
98 -8 545 -5 590 4 14 2 50 7 80 10 332 30 791 163 1115 324 711 352 1257 910
1635 1672 140 280 265 675 305 955 3 22 7 54 10 70 5 34 10 76 22 185 10 93
10 490 -1 585 -16 151 -22 199 -31 245 -3 14 -7 39 -10 55 -143 841 -632 1644
-1320 2167 -72 54 -234 168 -240 168 -2 0 -36 21 -75 46 -92 59 -325 178 -465
236 -241 100 -542 186 -785 223 -25 4 -54 9 -65 11 -10 2 -47 6 -81 10 -33 3
-74 8 -90 10 -33 6 -540 14 -546 9z m289 -800 c74 -31 112 -90 107 -167 -4
-58 -23 -97 -66 -133 -19 -16 -34 -39 -35 -53 -2 -26 1 -26 122 -6 56 10 191
12 241 4 27 -5 90 -16 139 -25 93 -16 170 -20 218 -10 15 3 66 15 113 26 79
19 88 19 110 4 13 -8 24 -23 25 -33 0 -9 0 -172 0 -361 0 -237 -4 -347 -11
-357 -10 -10 -79 -40 -87 -36 -2 0 -17 -4 -35 -9 -18 -6 -80 -12 -138 -14 -84
-3 -130 1 -230 21 -153 31 -273 29 -421 -8 l-47 -11 0 -209 c0 -129 4 -211 10
-214 6 -4 30 -8 55 -9 24 -1 50 -8 56 -14 8 -8 12 -70 13 -202 1 -105 4 -193
8 -196 3 -3 28 -5 56 -5 27 0 119 1 203 1 l152 1 0 191 c-1 134 3 196 11 207
11 15 37 17 193 18 161 0 183 -2 197 -17 14 -15 16 -47 15 -209 l-1 -190 35
-1 c19 0 73 0 120 0 47 0 125 0 174 0 l90 1 -1 190 c-1 163 1 192 15 208 15
17 34 18 189 18 112 -1 180 -5 193 -13 19 -11 20 -26 20 -1040 l0 -1028 208
-3 207 -2 0 194 c0 190 1 195 22 210 33 23 343 23 376 0 l22 -15 0 -516 0
-515 -82 -122 c-271 -403 -596 -711 -1018 -966 -95 -57 -306 -163 -405 -202
-22 -9 -62 -25 -90 -36 -57 -23 -259 -88 -296 -96 -13 -3 -53 -12 -89 -21 -36
-8 -74 -17 -86 -20 -20 -4 -20 -4 -20 548 0 304 -4 580 -8 615 -21 193 -142
365 -318 451 -112 56 -205 75 -334 68 -198 -11 -352 -87 -471 -232 -18 -22
-33 -44 -33 -49 0 -5 -6 -17 -13 -25 -8 -9 -21 -36 -30 -61 -42 -116 -44 -142
-45 -738 0 -316 -2 -576 -4 -578 -2 -2 -67 12 -143 32 -758 188 -1422 658
-1860 1314 l-80 120 1 516 c1 387 4 518 13 527 13 13 323 24 367 13 34 -9 39
-44 39 -238 l-1 -178 208 0 208 0 2 1031 c3 969 4 1031 21 1043 24 19 361 16
379 -2 9 -9 13 -60 15 -185 1 -95 2 -182 2 -194 l1 -23 208 0 207 0 -1 183 c0
162 6 224 25 228 3 1 86 3 184 4 157 1 179 -1 193 -16 13 -15 16 -49 16 -208
l0 -191 209 0 209 0 0 194 c0 219 0 219 77 222 24 1 47 5 50 8 4 3 7 288 7
632 l1 627 -32 24 c-42 32 -73 98 -73 154 0 118 133 201 247 154z"/>
<path d="M2508 3762 c-53 -6 -53 -5 -54 -411 -1 -302 2 -380 13 -398 13 -22
18 -23 191 -23 133 0 183 3 197 13 17 13 18 36 17 402 -1 318 -4 391 -15 403
-11 10 -52 14 -168 15 -85 1 -166 1 -181 -1z"/>
<path d="M4158 3762 c-8 -2 -20 -13 -25 -25 -6 -13 -9 -175 -9 -398 1 -303 4
-379 15 -392 12 -15 38 -17 197 -17 175 0 184 1 194 21 8 13 11 115 11 297 0
472 0 477 -14 496 -12 16 -32 18 -183 19 -94 1 -177 1 -186 -1z"/>
</g>
</svg>
